# AST/ASF file generated using VICON BodyLanguage
# -----------------------------------------------
:version 1.10
:name VICON
:units
  mass 1.0
  length 0.45
  angle deg
:documentation
   .ast/.asf automatically generated from VICON data using
   VICON BodyBuilder and BodyLanguage model FoxedUp or BRILLIANT.MOD
:root
   order TX TY TZ RX RY RZ
   axis XYZ
   position 0 0 0  
   orientation 0 0 0 
:bonedata
  begin
     id 1 
     name lhipjoint
     direction 0.561001 -0.76473 0.316963 
     length 2.4722 
     axis 0 0 0  XYZ
  end
  begin
     id 2 
     name lfemur
     direction 0.34202 -0.939693 0  
     length 7.59403  
     axis 0 0 20  XYZ
    dof rx ry rz
    limits (-160.0 20.0)
           (-70.0 70.0)
           (-60.0 70.0)
  end
  begin
     id 3 
     name ltibia
     direction 0.34202 -0.939693 0   
     length 7.89655   
     axis 0 0 20   XYZ
    dof rx
    limits (-10.0 170.0)
  end
  begin
     id 4 
     name lfoot
     direction 0.061296 -0.168409 0.98381   
     length 2.73287   
     axis -90 7.62852e-016 20   XYZ
    dof rx rz
    limits (-45.0 90.0)
           (-70.0 20.0)
  end
  begin
     id 5 
     name ltoes
     direction 1.53547e-011 -4.21984e-011 1   
     length 1.37057   
     axis -90 7.62852e-016 20   XYZ
    dof rx
    limits (-90.0 20.0)
  end
  begin
     id 6 
     name rhipjoint
     direction -0.559611 -0.765599 0.317323   
     length 2.46939  
     axis 0 0 0  XYZ 
  end
  begin
     id 7 
     name rfemur
     direction -0.34202 -0.939693 0   
     length 7.53712   
     axis 0 0 -20   XYZ
    dof rx ry rz
    limits (-160.0 20.0)
           (-70.0 70.0)
           (-70.0 60.0)
  end
  begin
     id 8 
     name rtibia
     direction -0.34202 -0.939693 0   
     length 8.12549   
     axis 0 0 -20   XYZ
    dof rx
    limits (-10.0 170.0)
 end
 begin
     id 9 
     name rfoot
     direction -0.066984 -0.184037 0.980634   
     length 2.67541  
     axis -90 -7.62852e-016 -20   XYZ
    dof rx rz
    limits (-45.0 90.0)
           (-20.0 70.0)
  end
  begin
     id 10 
     name rtoes
     direction -1.53549e-011 -4.21786e-011 1   
     length 1.34085   
     axis -90 -7.62852e-016 -20   XYZ
    dof rx
    limits (-90.0 20.0)
  end
  begin
     id 11 
     name lowerback
     direction -0.0522728 0.992594 -0.109658   
     length 2.05633   
     axis 0 0 0   XYZ
    dof rx ry rz
    limits (-20.0 45.0)
           (-30.0 30.0)
           (-30.0 30.0)
  end
  begin
     id 12 
     name upperback
     direction 0.00589338 0.999977 0.00335704   
     length 2.05845   
     axis 0 0 0   XYZ
    dof rx ry rz
    limits (-20.0 45.0)
           (-30.0 30.0)
           (-30.0 30.0)
  end
  begin
     id 13 
     name thorax
     direction 0.0292928 0.998059 0.0549487   
     length 2.09281   
     axis 0 0 0   XYZ
    dof rx ry rz
    limits (-20.0 45.0)
           (-30.0 30.0)
           (-30.0 30.0)
  end
  begin
     id 14 
     name lowerneck
     direction 0.0356368 0.980775 0.191858   
     length 1.84767   
     axis 0 0 0   XYZ
    dof rx ry rz
    limits (-20.0 45.0)
           (-30.0 30.0)
           (-30.0 30.0)
  end
  begin
     id 15 
     name upperneck
     direction -0.0227605 0.98931 -0.14404   
     length 1.89582   
     axis 0 0 0   XYZ
    dof rx ry rz
    limits (-20.0 45.0)
           (-30.0 30.0)
           (-30.0 30.0)
  end
  begin
     id 16
     name head
     direction -0.00932985 0.997511 -0.0698904  
     length 1.90213  
     axis 0 0 0   XYZ
    dof rx ry rz
    limits (-20.0 45.0)
           (-30.0 30.0)
           (-30.0 30.0)
  end
  begin
     id 17 
     name lclavicle
     direction 0.873442 0.479511 0.0846686  
     length 3.41193  
     axis 0 0 0   XYZ
    dof ry rz
    limits (-20.0 10.0)
           (0.0 20.0)
  end
  begin
     id 18 
     name lhumerus
     direction 1 -4.4897e-011 -5.62117e-018   
     length 5.59864   
     axis 180 -30 -90   XYZ
    dof rx ry rz
    limits (-60.0 90.0)
           (-90.0 90.0)
           (-90.0 90.0)
  end
  begin
     id 19
     name lradius
     direction 1 -4.48966e-011 -6.26295e-027   
     length 3.59542   
     axis 180 -30 -90   XYZ
    dof rx
    limits (-10.0 170.0)
  end
  begin
     id 20
     name lwrist
     direction 1 -4.48947e-011 -1.74096e-026   
     length 1.79771   
     axis 1.04567e-014 90 90   XYZ
    dof ry
    limits (-180.0 0.0)
 end
  begin
     id 21 
     name lhand
     direction 1 -4.49085e-011 -3.48469e-026   
     length 0.572014   
     axis 2.22196e-014 90 90   XYZ
    dof rx rz
    limits (-90.0 90.0)
           (-45.0 45.0)
  end
  begin
     id 22 
     name lfingers
     direction 1 -4.48884e-011 -6.96135e-026   
     length 0.461173   
     axis 4.44383e-014 90 90   XYZ
    dof rx
    limits (0.0 90.0)
  end
  begin
     id 23
     name lthumb
     direction 0.707107 -6.34976e-011 0.707107   
     length 0.662154   
     axis -90 45 -5.4397e-014   XYZ
    dof rx rz
    limits (-45.0 45.0)
           (-45.0 45.0)
  end
  begin
     id 24 
     name rclavicle
     direction -0.890242 0.443271 0.104786   
     length 3.46753  
     axis 0 0 0   XYZ 
    dof ry rz
    limits (-10.0 20.0)
           (-20.0 0.0)
  end
  begin
     id 25 
     name rhumerus
     direction -1 -4.48963e-011 -5.41723e-018  
     length 5.8094   
     axis 180 30 90   XYZ
    dof rx ry rz
    limits (-90.0 60.0)
           (-90.0 90.0)
           (-90.0 90.0)
  end
  begin
     id 26 
     name rradius
     direction -1 -4.48958e-011 -6.51059e-027   
     length 3.66953   
     axis 180 30 90   XYZ
    dof rx
    limits (-10.0 170.0)
  end
  begin
     id 27 
     name rwrist
     direction -1 -4.48975e-011 -1.74124e-026   
     length 1.83476   
     axis 1.04567e-014 -90 -90   XYZ
    dof ry
    limits (-180.0 0.0)
  end
  begin
     id 28
     name rhand
     direction -1 -4.49013e-011 -3.48326e-026   
     length 0.57843   
     axis 2.22196e-014 -90 -90   XYZ
    dof rx rz
    limits (-90.0 90.0)
           (-45.0 45.0)
  end
  begin
     id 29
     name rfingers
     direction -1 -4.49023e-011 -6.9669e-026   
     length 0.466345   
     axis 4.44383e-014 -90 -90   XYZ
    dof rx
    limits (0.0 90.0)
  end
  begin
     id 30
     name rthumb
     direction -0.707107 -6.34926e-011 0.707107   
     length 0.669581   
     axis -90 -45 5.4397e-014   XYZ
    dof rx rz
    limits (-45.0 45.0)
           (-45.0 45.0)
  end
:hierarchy
  begin
    root lhipjoint rhipjoint lowerback
    lhipjoint lfemur
    lfemur ltibia
    ltibia lfoot
    lfoot ltoes
    rhipjoint rfemur
    rfemur rtibia
    rtibia rfoot
    rfoot rtoes
    lowerback upperback
    upperback thorax
    thorax lowerneck lclavicle rclavicle
    lowerneck upperneck
    upperneck head
    lclavicle lhumerus
    lhumerus lradius
    lradius lwrist
    lwrist lhand lthumb
    lhand lfingers
    rclavicle rhumerus
    rhumerus rradius
    rradius rwrist
    rwrist rhand rthumb
    rhand rfingers
  end

#!OML:ASF H:\SkateBoarding\Project 1\Capture day 1\Session 1\Skater.ASF
:FULLY-SPECIFIED
:DEGREES
180
root 8.00662 17.1331 -19.1785 17.9191 9.50956 0.462026
lowerback 24.7807 5.36369 -5.66402
upperback 8.26805 5.76969 2.67821
thorax -5.37822 2.76456 4.4707
lowerneck -26.0697 -5.20628 -1.11583
upperneck 29.5951 -8.47312 4.19014
head 14.9034 -3.03332 0.219362
rclavicle 1.98785e-014 -2.22639e-014
rhumerus 22.502 -2.06582 -65.4185
rradius 27.7364
rwrist 6.84562
rhand -35.8172 -14.355
rfingers 7.12502
rthumb -8.93337 -44.1459
lclavicle 1.98785e-014 -2.22639e-014
lhumerus -16.94 -12.7654 77.36
lradius 45.5364
lwrist 17.8068
lhand -25.5399 6.02483
lfingers 7.12502
lthumb 0.990106 36.0023
rfemur -80.7431 5.54783 3.25847
rtibia 79.2143
rfoot -13.0238 14.4828
rtoes -13.3172
lfemur -26.2807 -6.35611 -16.534
ltibia 58.0987
lfoot -17.8735 -26.1377
ltoes 2.75721
181
root 7.98769 17.0036 -18.9181 17.434 9.86558 0.544755
lowerback 24.4044 5.28136 -5.78485
upperback 8.17837 5.66208 2.65231
thorax -5.28579 2.71584 4.5623
lowerneck -25.9837 -5.24189 -1.08779
upperneck 29.7413 -8.58764 4.29971
head 14.9617 -3.05822 0.237788
rclavicle -3.89618e-014 7.95139e-016
rhumerus 21.9241 -1.08404 -64.5383
rradius 28.3603
rwrist 5.26215
rhand -36.0787 -14.3729
rfingers 7.12502
rthumb -9.18579 -44.1528
lclavicle -3.89618e-014 7.95139e-016
lhumerus -15.948 -12.7969 76.2752
lradius 46.6463
lwrist 18.4026
lhand -25.9863 5.83186
lfingers 7.12502
lthumb 0.558959 35.8109
rfemur -80.0216 6.09898 2.8568
rtibia 78.4443
rfoot -12.9597 13.5396
rtoes -13.2654
lfemur -25.1976 -6.56548 -16.386
ltibia 59.0963
lfoot -17.1834 -27.2138
ltoes 3.39919
182
root 7.96508 16.8713 -18.6515 16.995 10.2095 0.658882
lowerback 23.9879 5.21033 -5.94046
upperback 8.07918 5.56065 2.58283
thorax -5.18181 2.66993 4.62526
lowerneck -25.8788 -5.29639 -1.1494
upperneck 29.8225 -8.75552 4.60138
head 15.0073 -3.08962 0.339623
rclavicle -1.19271e-014 1.11319e-014
rhumerus 21.3433 -0.00110088 -63.5632
rradius 29.0399
rwrist 3.50007
rhand -36.3363 -14.34
rfingers 7.12502
rthumb -9.43433 -44.1088
lclavicle -1.19271e-014 1.11319e-014
lhumerus -14.8109 -12.8624 75.0319
lradius 47.9663
lwrist 19.1
lhand -26.4407 5.7357
lfingers 7.12502
lthumb 0.120055 35.7154
rfemur -79.4084 6.58097 2.40722
rtibia 77.8922
rfoot -12.7569 13.0379
rtoes -12.6464
lfemur -24.1244 -6.64706 -16.2399
ltibia 60.0198
lfoot -16.3798 -28.2106
ltoes 3.986
183
root 7.93828 16.7365 -18.3785 16.6057 10.5598 0.807166
lowerback 23.5476 5.15166 -6.13205
upperback 7.96499 5.46657 2.47389
thorax -5.08098 2.6278 4.66344
lowerneck -25.7533 -5.37299 -1.30061
upperneck 29.8473 -8.97946 5.08759
head 15.0447 -3.12978 0.521332
rclavicle 1.43125e-014 -1.27222e-014
rhumerus 20.7494 1.15477 -62.4906
rradius 29.7872
rwrist 1.65874
rhand -36.5662 -14.2602
rfingers 7.12502
rthumb -9.65609 -44.0189
lclavicle 1.43125e-014 -1.27222e-014
lhumerus -13.5033 -12.9614 73.6317
lradius 49.4683
lwrist 19.8203
lhand -26.9031 5.70005
lfingers 7.12502
lthumb -0.32648 35.6795
rfemur -78.9181 6.95225 1.93864
rtibia 77.6324
rfoot -12.4835 13.0538
rtoes -11.3406
lfemur -23.0573 -6.60826 -16.0861
ltibia 60.8574
lfoot -15.6148 -29.0777
ltoes 4.35644
184
root 7.90744 16.5994 -18.0994 16.2696 10.9363 0.984658
lowerback 23.0958 5.10041 -6.34625
upperback 7.83386 5.37673 2.33069
thorax -4.99054 2.58821 4.67533
lowerneck -25.6156 -5.47024 -1.51202
upperneck 29.8251 -9.25187 5.70596
head 15.0762 -3.17973 0.757823
rclavicle 4.6118e-014 1.98785e-014
rhumerus 20.1562 2.36752 -61.3108
rradius 30.6036
rwrist -0.179905
rhand -36.7684 -14.1275
rfingers 7.12502
rthumb -9.85116 -43.8771
lclavicle 4.6118e-014 1.98785e-014
lhumerus -11.9883 -13.0899 72.0842
lradius 51.1143
lwrist 20.5035
lhand -27.3955 5.69945
lfingers 7.12502
lthumb -0.802093 35.6777
rfemur -78.5821 7.15677 1.51155
rtibia 77.7282
rfoot -12.1493 13.5353
rtoes -9.56371
lfemur -21.9827 -6.47578 -15.9086
ltibia 61.5837
lfoot -14.9086 -29.8552
ltoes 4.51285
185
root 7.87222 16.4623 -17.814 15.9835 11.3727 1.18449
lowerback 22.6595 5.04984 -6.56362
upperback 7.68163 5.28562 2.15971
thorax -4.92708 2.54911 4.65707
lowerneck -25.4814 -5.58454 -1.78851
upperneck 29.781 -9.57237 6.46971
head 15.1201 -3.23685 1.05525
rclavicle 3.97569e-015 1.19271e-014
rhumerus 19.5592 3.57186 -60.0599
rradius 31.4894
rwrist -1.89907
rhand -36.9214 -13.9843
rfingers 7.12502
rthumb -9.99883 -43.7268
lclavicle 3.97569e-015 1.19271e-014
lhumerus -10.2362 -13.2449 70.3985
lradius 52.8681
lwrist 21.0895
lhand -27.9446 5.72578
lfingers 7.12502
lthumb -1.33244 35.7014
rfemur -78.4157 7.14123 1.18914
rtibia 78.2142
rfoot -11.744 14.3672
rtoes -7.59
lfemur -20.8848 -6.29483 -15.6823
ltibia 62.1648
lfoot -14.275 -30.5562
ltoes 4.52648
186
root 7.83306 16.3269 -17.523 15.7479 11.885 1.39509
lowerback 22.2405 5.00102 -6.77836
upperback 7.51528 5.197 1.97972
thorax -4.88572 2.51207 4.62504
lowerneck -25.3489 -5.72158 -2.03072
upperneck 29.6928 -9.91858 7.18362
head 15.145 -3.31048 1.32076
rclavicle 5.96354e-014 -2.14687e-014
rhumerus 18.9833 4.72601 -58.7213
rradius 32.4363
rwrist -3.45007
rhand -37.0329 -13.8653
rfingers 7.12502
rthumb -10.1063 -43.6026
lclavicle 5.96354e-014 -2.14687e-014
lhumerus -8.21573 -13.4115 68.6082
lradius 54.6973
lwrist 21.5466
lhand -28.5924 5.79095
lfingers 7.12502
lthumb -1.9581 35.7617
rfemur -78.4435 6.86999 1.02515
rtibia 79.0854
rfoot -11.3547 15.3357
rtoes -5.91589
lfemur -19.7381 -6.10094 -15.3924
ltibia 62.5649
lfoot -13.6959 -31.218
ltoes 4.56271
187
root 7.7907 16.1954 -17.2262 15.563 12.4838 1.60833
lowerback 21.8462 4.93592 -6.99167
upperback 7.34102 5.08807 1.80987
thorax -4.86235 2.46578 4.60703
lowerneck -25.2521 -5.86049 -2.22438
upperneck 29.5851 -10.2449 7.78294
head 15.1595 -3.38757 1.53372
rclavicle 1.08139e-013 -7.15625e-015
rhumerus 18.493 5.83991 -57.2886
rradius 33.4215
rwrist -4.83192
rhand -37.1333 -13.7417
rfingers 7.12502
rthumb -10.2033 -43.4743
lclavicle 1.08139e-013 -7.15625e-015
lhumerus -5.93414 -13.516 66.7432
lradius 56.5742
lwrist 21.8766
lhand -29.3622 5.87994
lfingers 7.12502
lthumb -2.70155 35.8426
rfemur -78.6683 6.32886 1.0441
rtibia 80.2874
rfoot -11.0056 16.2539
rtoes -4.77843
lfemur -18.5276 -5.94524 -15.0267
ltibia 62.7497
lfoot -12.9899 -31.8854
ltoes 4.88276
188
root 7.74603 16.0693 -16.9239 15.427 13.1761 1.81176
lowerback 21.4823 4.85236 -7.19123
upperback 7.15577 4.95851 1.66453
thorax -4.86359 2.41035 4.61112
lowerneck -25.1778 -5.99879 -2.36996
upperneck 29.4675 -10.5391 8.24324
head 15.1604 -3.46639 1.68677
rclavicle 6.79844e-014 -9.54166e-015
rhumerus 18.0965 6.89438 -55.7541
rradius 34.4227
rwrist -6.00855
rhand -37.2732 -13.6224
rfingers 7.12502
rthumb -10.3382 -43.3483
lclavicle 6.79844e-014 -9.54166e-015
lhumerus -3.41155 -13.5519 64.8417
lradius 58.4798
lwrist 22.1023
lhand -30.2443 5.97354
lfingers 7.12502
lthumb -3.55342 35.9237
rfemur -79.0691 5.52406 1.25926
rtibia 81.7283
rfoot -10.8275 16.9572
rtoes -4.45359
lfemur -17.2418 -5.86234 -14.5808
ltibia 62.6971
lfoot -12.1249 -32.5548
ltoes 5.53758
189
root 7.70045 15.9521 -16.6157 15.3476 13.957 2.00638
lowerback 21.1394 4.74015 -7.38083
upperback 6.96327 4.79545 1.55524
thorax -4.88013 2.33923 4.65592
lowerneck -25.1375 -6.12527 -2.47102
upperneck 29.3508 -10.7763 8.54122
head 15.1495 -3.53937 1.77594
rclavicle 3.61788e-014 1.03368e-014
rhumerus 17.842 7.84465 -54.1346
rradius 35.4353
rwrist -7.03015
rhand -37.4384 -13.506
rfingers 7.12502
rthumb -10.4976 -43.2239
lclavicle 3.61788e-014 1.03368e-014
lhumerus -0.67546 -13.4717 62.9427
lradius 60.3872
lwrist 22.2527
lhand -31.2204 6.04489
lfingers 7.12502
lthumb -4.49596 35.9772
rfemur -79.6192 4.49943 1.62716
rtibia 83.2775
rfoot -10.7915 17.3455
rtoes -4.90455
lfemur -15.9112 -5.89999 -14.0636
ltibia 62.3968
lfoot -11.1189 -33.1622
ltoes 6.48265
190
root 7.65481 15.8451 -16.3009 15.322 14.812 2.1796
lowerback 20.8186 4.60005 -7.53936
upperback 6.75785 4.60292 1.47737
thorax -4.9172 2.25475 4.72283
lowerneck -25.1167 -6.23754 -2.51915
upperneck 29.2369 -10.9583 8.68184
head 15.1229 -3.6058 1.8019
rclavicle 1.66979e-014 6.36111e-015
rhumerus 17.7234 8.65493 -52.4631
rradius 36.4365
rwrist -7.87048
rhand -37.6465 -13.3478
rfingers 7.12502
rthumb -10.6983 -43.0555
lclavicle 1.66979e-014 6.36111e-015
lhumerus 2.23579 -13.2888 61.0596
lradius 62.2804
lwrist 22.3674
lhand -32.238 6.08079
lfingers 7.12502
lthumb -5.47849 35.99
rfemur -80.2487 3.31519 2.112
rtibia 84.8181
rfoot -10.8615 17.4912
rtoes -5.87517
lfemur -14.5425 -6.06669 -13.4787
ltibia 61.85
lfoot -10.052 -33.652
ltoes 7.5557
191
root 7.61025 15.7471 -15.9791 15.3488 15.7282 2.32324
lowerback 20.5143 4.43151 -7.65779
upperback 6.53706 4.38218 1.43792
thorax -4.97466 2.15759 4.81401
lowerneck -25.1019 -6.33584 -2.53325
upperneck 29.1283 -11.0825 8.67721
head 15.0798 -3.6652 1.77405
rclavicle 5.48646e-014 0
rhumerus 17.7364 9.31316 -50.7518
rradius 37.4252
rwrist -8.52948
rhand -37.8986 -13.1242
rfingers 7.12502
rthumb -10.9414 -42.8191
lclavicle 5.48646e-014 0
lhumerus 5.26959 -12.9959 59.2267
lradius 64.141
lwrist 22.4565
lhand -33.2357 6.0791
lfingers 7.12502
lthumb -6.44177 35.9611
rfemur -80.8827 2.02527 2.66477
rtibia 86.2294
rfoot -10.7964 17.5453
rtoes -6.83938
lfemur -13.1485 -6.35948 -12.8375
ltibia 61.0667
lfoot -8.97088 -33.9843
ltoes 8.65968
192
root 7.56758 15.659 -15.6497 15.4269 16.6845 2.4321
lowerback 20.2277 4.23656 -7.71018
upperback 6.29129 4.13861 1.41744
thorax -5.06135 2.05086 4.89174
lowerneck -25.0828 -6.42299 -2.50911
upperneck 29.0353 -11.1684 8.56164
head 15.027 -3.72005 1.70257
rclavicle 9.54166e-015 1.27222e-014
rhumerus 17.8459 9.79279 -49.0561
rradius 38.3979
rwrist -9.00188
rhand -38.1965 -12.8087
rfingers 7.12502
rthumb -11.2288 -42.4882
lclavicle 9.54166e-015 1.27222e-014
lhumerus 8.37785 -12.6253 57.4381
lradius 65.9594
lwrist 22.5289
lhand -34.1716 6.05864
lfingers 7.12502
lthumb -7.34522 35.9111
rfemur -81.4701 0.689001 3.24419
rtibia 87.4264
rfoot -10.5364 17.6218
rtoes -7.61803
lfemur -11.7297 -6.76689 -12.1509
ltibia 60.0481
lfoot -7.91461 -34.1276
ltoes 9.70224
193
root 7.52727 15.5817 -15.3113 15.5473 17.6637 2.49105
lowerback 19.9552 4.02296 -7.67979
upperback 6.01428 3.88472 1.41225
thorax -5.18333 1.94078 4.93917
lowerneck -25.0382 -6.50748 -2.46693
upperneck 28.9638 -11.2358 8.37823
head 14.9692 -3.77511 1.60532
rclavicle -4.37326e-015 -1.63003e-014
rhumerus 18.0112 10.1 -47.4005
rradius 39.3643
rwrist -9.29797
rhand -38.4851 -12.4205
rfingers 7.12502
rthumb -11.5071 -42.0847
lclavicle -4.37326e-015 -1.63003e-014
lhumerus 11.5054 -12.2082 55.7027
lradius 67.7242
lwrist 22.5732
lhand -35.0455 6.03214
lfingers 7.12502
lthumb -8.18867 35.8535
rfemur -81.9604 -0.634536 3.826
rtibia 88.3559
rfoot -10.1146 17.8393
rtoes -7.9718
lfemur -10.2762 -7.26981 -11.4166
ltibia 58.7868
lfoot -6.91432 -34.0522
ltoes 10.7266
194
root 7.48997 15.5152 -14.9638 15.7106 18.6269 2.49065
lowerback 19.689 3.7949 -7.56116
upperback 5.69864 3.62609 1.41133
thorax -5.34503 1.82997 4.93997
lowerneck -24.9744 -6.58574 -2.4168
upperneck 28.9371 -11.2894 8.15799
head 14.9226 -3.82757 1.49616
rclavicle -7.83212e-014 -1.86858e-014
rhumerus 18.2145 10.2814 -45.8145
rradius 40.3332
rwrist -9.44263
rhand -38.7667 -11.9784
rfingers 7.12502
rthumb -11.7787 -41.6272
lclavicle -7.83212e-014 -1.86858e-014
lhumerus 14.5815 -11.7463 54.0181
lradius 69.4337
lwrist 22.557
lhand -35.8381 5.98276
lfingers 7.12502
lthumb -8.95358 35.7728
rfemur -82.3449 -1.88904 4.39251
rtibia 88.9927
rfoot -9.59905 18.2166
rtoes -7.90651
lfemur -8.77766 -7.83607 -10.645
ltibia 57.2635
lfoot -5.95112 -33.7345
ltoes 11.7482
